<svg width="250" height="105" viewBox="0 0 250 105" fill="none" xmlns="http://www.w3.org/2000/svg">
<path d="M77.7264 40.5468H87.3874V0.591064H77.7264V40.5468Z" fill="#25054D"/>
<path d="M91.4922 52.6265H102.593L122.008 16.7592H110.907L106.077 26.7946L100.224 16.7592H89.1234L100.41 35.9473L91.4922 52.6265Z" fill="#25054D"/>
<path d="M124.174 40.5468H133.835V27.445C133.835 26.2526 134.191 25.3001 134.903 24.5877C135.615 23.8599 136.56 23.4959 137.736 23.4959C138.913 23.4959 139.857 23.8599 140.569 24.5877C141.282 25.3001 141.638 26.2526 141.638 27.445V40.5468H151.299V25.3543C151.299 23.5734 150.881 21.986 150.045 20.5922C149.209 19.1829 148.071 18.0678 146.631 17.247C145.206 16.4262 143.589 16.0158 141.777 16.0158C140.353 16.0158 138.944 16.2791 137.55 16.8057C136.172 17.3167 134.934 18.0446 133.835 18.9893V16.7592H124.174V40.5468Z" fill="#25054D"/>
<path d="M167.786 41.2902C170.449 41.2902 172.903 40.4229 175.148 38.6884V40.5468H184.809V0.591064H175.148V18.2924C174.219 17.5645 173.143 17.007 171.92 16.6198C170.697 16.2172 169.404 16.0158 168.042 16.0158C165.735 16.0158 163.683 16.5734 161.887 17.6884C160.107 18.788 158.706 20.2902 157.684 22.195C156.662 24.0999 156.151 26.2526 156.151 28.653C156.151 31.1309 156.677 33.3223 157.73 35.2271C158.799 37.132 160.215 38.6187 161.98 39.6873C163.745 40.7559 165.68 41.2902 167.786 41.2902ZM170.805 33.1132C169.489 33.1132 168.421 32.7028 167.6 31.882C166.78 31.0457 166.369 29.9926 166.369 28.7227C166.369 27.4218 166.795 26.3455 167.647 25.4937C168.514 24.6265 169.582 24.1928 170.852 24.1928C172.121 24.1928 173.182 24.6265 174.033 25.4937C174.9 26.3455 175.334 27.4141 175.334 28.6995C175.334 29.9694 174.908 31.0225 174.056 31.8588C173.22 32.695 172.137 33.1132 170.805 33.1132Z" fill="#25054D"/>
<path d="M203.756 41.2902C206.357 41.2902 208.71 40.7327 210.816 39.6176C212.937 38.4871 214.555 36.9384 215.67 34.9716L208.749 31.5335C207.913 32.3389 207.177 32.8964 206.543 33.2061C205.923 33.5158 205.18 33.6707 204.313 33.6707C202.904 33.6707 201.805 33.3455 201.015 32.695C200.226 32.0446 199.831 31.1464 199.831 30.0004H215.948C215.995 29.3964 216.018 29.0092 216.018 28.8389C216.033 28.653 216.041 28.4594 216.041 28.2581C216.041 25.8267 215.515 23.6973 214.462 21.8698C213.409 20.0269 211.946 18.5944 210.073 17.5723C208.215 16.5346 206.047 16.0158 203.57 16.0158C200.984 16.0158 198.654 16.5734 196.58 17.6884C194.505 18.788 192.864 20.2902 191.656 22.195C190.449 24.0844 189.845 26.2216 189.845 28.6066C189.845 31.007 190.456 33.1674 191.68 35.0877C192.903 36.9926 194.559 38.5026 196.649 39.6176C198.755 40.7327 201.124 41.2902 203.756 41.2902ZM200.11 25.4473C200.141 23.5889 201.209 22.6596 203.315 22.6596C205.219 22.6596 206.318 23.5889 206.612 25.4473H200.11Z" fill="#25054D"/>
<path d="M221.377 40.5468H231.038V27.445C231.038 26.2526 231.394 25.3001 232.106 24.5877C232.819 23.8599 233.763 23.4959 234.94 23.4959C236.116 23.4959 237.061 23.8599 237.773 24.5877C238.485 25.3001 238.841 26.2526 238.841 27.445V40.5468H248.502V25.3543C248.502 23.5734 248.084 21.986 247.248 20.5922C246.412 19.1829 245.274 18.0678 243.834 17.247C242.41 16.4262 240.792 16.0158 238.981 16.0158C237.556 16.0158 236.147 16.2791 234.754 16.8057C233.376 17.3167 232.137 18.0446 231.038 18.9893V16.7592H221.377V40.5468Z" fill="#25054D"/>
<path d="M14.0447 93.6635C15.175 93.6635 16.3361 93.5163 17.5283 93.2221C18.7204 92.9433 19.8119 92.5484 20.8028 92.0374L18.3876 84.2785C17.7218 84.7741 17.0793 85.0219 16.46 85.0219C15.4536 85.0219 14.9505 84.4024 14.9505 83.1635V76.4732H19.6881V69.1325H14.9505V60.2121H5.28945V69.1325H1.57367V76.4732H5.28945V83.9068C5.28945 86.9732 6.05583 89.3659 7.58858 91.0849C9.13682 92.804 11.2889 93.6635 14.0447 93.6635Z" fill="#25054D"/>
<path d="M26.1083 92.9201H35.7693V81.2586C35.7693 80.4688 35.9938 79.7332 36.4428 79.0517C36.8918 78.3703 37.4801 77.8205 38.2078 77.4024C38.951 76.9688 39.7328 76.752 40.5534 76.752C41.2037 76.752 41.9159 76.8836 42.69 77.1469C43.4796 77.4102 44.1608 77.7586 44.7337 78.1922L48.7746 70.0617C48.1088 69.5661 47.265 69.1635 46.2432 68.8537C45.2213 68.544 44.2537 68.3891 43.3402 68.3891C41.9313 68.3891 40.5611 68.7531 39.2297 69.4809C37.9137 70.1933 36.7602 71.1922 35.7693 72.4776V69.1325H26.1083V92.9201Z" fill="#25054D"/>
<path d="M60.5838 93.6635C63.1693 93.6635 65.5846 92.7962 67.8295 91.0617V92.9201H77.4905V69.1325H67.8295V70.6657C65.8168 69.148 63.4016 68.3891 60.5838 68.3891C58.2769 68.3891 56.2409 68.9467 54.476 70.0617C52.711 71.1768 51.3253 72.6867 50.3189 74.5916C49.3281 76.4809 48.8326 78.6104 48.8326 80.9798C48.8326 83.4267 49.359 85.6104 50.4118 87.5307C51.4646 89.4356 52.8813 90.9378 54.6617 92.0374C56.4422 93.1214 58.4162 93.6635 60.5838 93.6635ZM63.5564 85.4865C62.2559 85.4865 61.1798 85.0683 60.3283 84.2321C59.4768 83.3803 59.051 82.3117 59.051 81.0263C59.051 79.7409 59.4768 78.6801 60.3283 77.8438C61.1953 76.992 62.2713 76.5661 63.5564 76.5661C64.8414 76.5661 65.902 76.992 66.738 77.8438C67.5895 78.6801 68.0153 79.7409 68.0153 81.0263C68.0153 82.3117 67.5973 83.3803 66.7612 84.2321C65.9252 85.0683 64.8569 85.4865 63.5564 85.4865Z" fill="#25054D"/>
<path d="M84.8023 92.9201H94.4634V79.8183C94.4634 78.6259 94.8195 77.6734 95.5317 76.961C96.2438 76.2332 97.1883 75.8692 98.3649 75.8692C99.5416 75.8692 100.486 76.2332 101.198 76.961C101.91 77.6734 102.267 78.6259 102.267 79.8183V92.9201H111.928V77.7276C111.928 75.9467 111.509 74.3593 110.673 72.9655C109.837 71.5562 108.699 70.4411 107.26 69.6203C105.835 68.7995 104.217 68.3891 102.406 68.3891C100.981 68.3891 99.5726 68.6524 98.1791 69.179C96.8012 69.69 95.5626 70.4179 94.4634 71.3626V69.1325H84.8023V92.9201Z" fill="#25054D"/>
<path d="M125.633 93.6635C129.38 93.6635 132.244 92.9588 134.226 91.5495C136.208 90.1248 137.199 88.0573 137.199 85.3471C137.199 83.9378 136.943 82.7995 136.432 81.9323C135.937 81.065 135.263 80.3681 134.412 79.8416C133.576 79.315 132.631 78.8736 131.579 78.5175C131.006 78.3161 130.332 78.0761 129.558 77.7973C128.784 77.5186 128.103 77.2088 127.515 76.8681C126.942 76.5274 126.655 76.1712 126.655 75.7995C126.655 75.5363 126.818 75.3117 127.143 75.1259C127.484 74.94 127.956 74.8471 128.56 74.8471C129.783 74.8471 131.579 75.2962 133.947 76.1944L136.967 69.8294C135.14 69.3338 133.537 68.9776 132.159 68.7608C130.797 68.544 129.566 68.4356 128.467 68.4356C126.299 68.4356 124.387 68.784 122.73 69.4809C121.074 70.1778 119.781 71.1458 118.852 72.3847C117.923 73.6236 117.459 75.0562 117.459 76.6823C117.459 77.9057 117.714 78.9124 118.225 79.7022C118.736 80.492 119.402 81.1425 120.222 81.6535C121.058 82.1646 121.949 82.6292 122.893 83.0473C124.395 83.6978 125.455 84.1624 126.075 84.4411C126.709 84.7044 127.027 85.1225 127.027 85.6956C127.027 86.2995 126.57 86.6015 125.657 86.6015C123.969 86.6015 121.964 85.8736 119.642 84.4179L115.833 91.1082C118.233 92.8117 121.5 93.6635 125.633 93.6635Z" fill="#25054D"/>
<path d="M142.816 105H152.477V91.0617C154.706 92.7962 157.16 93.6635 159.839 93.6635C162.037 93.6635 164.011 93.1059 165.761 91.9909C167.526 90.8759 168.919 89.3659 169.941 87.461C170.963 85.5562 171.474 83.4113 171.474 81.0263C171.474 78.6104 170.955 76.45 169.918 74.5451C168.896 72.6402 167.487 71.138 165.691 70.0385C163.911 68.9389 161.883 68.3891 159.607 68.3891C156.835 68.3891 154.459 69.148 152.477 70.6657V69.1325H142.816V105ZM156.82 85.4865C155.504 85.4865 154.42 85.0683 153.569 84.2321C152.717 83.3958 152.291 82.3349 152.291 81.0495C152.291 79.7641 152.725 78.6955 153.592 77.8438C154.459 76.992 155.527 76.5661 156.797 76.5661C158.066 76.5661 159.127 76.9998 159.978 77.867C160.83 78.7188 161.256 79.7874 161.256 81.0728C161.256 82.3582 160.838 83.419 160.001 84.2553C159.181 85.0761 158.12 85.4865 156.82 85.4865Z" fill="#25054D"/>
<path d="M189.051 93.6635C191.775 93.6635 194.229 93.1292 196.412 92.0606C198.611 90.9765 200.345 89.4898 201.615 87.6004C202.9 85.6955 203.542 83.5042 203.542 81.0263C203.542 78.5484 202.9 76.3648 201.615 74.4754C200.345 72.5706 198.611 71.0838 196.412 70.0152C194.229 68.9312 191.775 68.3891 189.051 68.3891C186.326 68.3891 183.864 68.9312 181.665 70.0152C179.482 71.0838 177.748 72.5706 176.463 74.4754C175.194 76.3648 174.559 78.5484 174.559 81.0263C174.559 83.5042 175.194 85.6955 176.463 87.6004C177.748 89.4898 179.482 90.9765 181.665 92.0606C183.864 93.1292 186.326 93.6635 189.051 93.6635ZM189.051 85.4865C187.874 85.4865 186.852 85.0761 185.985 84.2553C185.118 83.419 184.685 82.3427 184.685 81.0263C184.685 79.6944 185.118 78.6181 185.985 77.7973C186.852 76.9765 187.874 76.5661 189.051 76.5661C190.243 76.5661 191.265 76.9765 192.116 77.7973C192.983 78.6181 193.417 79.6944 193.417 81.0263C193.417 82.3427 192.983 83.419 192.116 84.2553C191.265 85.0761 190.243 85.4865 189.051 85.4865Z" fill="#25054D"/>
<path d="M208.45 92.9201H218.111V81.2586C218.111 80.4688 218.335 79.7332 218.784 79.0517C219.233 78.3703 219.822 77.8205 220.549 77.4024C221.293 76.9688 222.074 76.752 222.895 76.752C223.545 76.752 224.257 76.8836 225.032 77.1469C225.821 77.4102 226.502 77.7586 227.075 78.1922L231.116 70.0617C230.45 69.5661 229.607 69.1635 228.585 68.8537C227.563 68.544 226.595 68.3891 225.682 68.3891C224.273 68.3891 222.903 68.7531 221.571 69.4809C220.255 70.1933 219.102 71.1922 218.111 72.4776V69.1325H208.45V92.9201Z" fill="#25054D"/>
<path d="M243.242 93.6635C244.372 93.6635 245.533 93.5163 246.725 93.2221C247.917 92.9433 249.009 92.5484 250 92.0374L247.585 84.2785C246.919 84.7741 246.276 85.0219 245.657 85.0219C244.651 85.0219 244.147 84.4024 244.147 83.1635V76.4732H248.885V69.1325H244.147V60.2121H234.486V69.1325H230.771V76.4732H234.486V83.9068C234.486 86.9732 235.253 89.3659 236.786 91.0849C238.334 92.804 240.486 93.6635 243.242 93.6635Z" fill="#25054D"/>
<g clip-path="url(#clip0)">
<path d="M1.2803 41.289H49.3893C49.5488 41.2885 49.7064 41.254 49.8515 41.1878C49.9965 41.1215 50.1257 41.0251 50.2304 40.9049C50.3351 40.7848 50.4128 40.6437 50.4584 40.4911C50.5039 40.3385 50.5163 40.1779 50.4946 40.0201L49.9466 36.0572C49.879 35.5844 49.643 35.1517 49.2819 34.8384C48.9207 34.5252 48.4585 34.3523 47.98 34.3516H46.7964V25.5844H47.9893V15.7092H49.4354C49.6565 15.7092 49.8685 15.6216 50.0248 15.4655C50.1811 15.3094 50.269 15.0978 50.269 14.8771V9.65448C50.269 9.43379 50.1811 9.22213 50.0248 9.06608C49.8685 8.91003 49.6565 8.82236 49.4354 8.82236H46.7366C46.6271 8.82236 46.5187 8.84388 46.4176 8.8857C46.3164 8.92752 46.2245 8.98881 46.1471 9.06608C46.0697 9.14335 46.0083 9.23508 45.9664 9.33604C45.9245 9.437 45.903 9.54521 45.903 9.65448V14.8771C45.903 15.0978 45.9908 15.3094 46.1471 15.4655C46.3034 15.6216 46.5155 15.7092 46.7366 15.7092H46.7964V18.247H42.6515V31.1196L41.5646 22.5593C41.4092 21.3676 40.825 20.2731 39.9209 19.4796C39.0167 18.6862 37.8544 18.2481 36.6505 18.247H14.0237C12.8193 18.2461 11.6559 18.6835 10.7514 19.4773C9.84681 20.2711 9.26313 21.3668 9.10964 22.5593L7.99511 31.138V18.2654H3.87319V15.7092H3.93307C4.15415 15.7092 4.36618 15.6216 4.52251 15.4655C4.67884 15.3094 4.76666 15.0978 4.76666 14.8771V9.65448C4.76666 9.43379 4.67884 9.22213 4.52251 9.06608C4.36618 8.91003 4.15415 8.82236 3.93307 8.82236H1.23885C1.01777 8.82236 0.805739 8.91003 0.64941 9.06608C0.49308 9.22213 0.405255 9.43379 0.405255 9.65448V14.8771C0.405255 15.0978 0.49308 15.3094 0.64941 15.4655C0.805739 15.6216 1.01777 15.7092 1.23885 15.7092H2.68037V25.5844H3.87319V34.3516H2.68958C2.21138 34.3515 1.74929 34.5242 1.38867 34.8377C1.02805 35.1512 0.793254 35.5844 0.72764 36.0572L0.17498 40.0201C0.153317 40.1779 0.165688 40.3385 0.211265 40.4911C0.256842 40.6437 0.334571 40.7848 0.439242 40.9049C0.543912 41.0251 0.673106 41.1215 0.818162 41.1878C0.963218 41.254 1.12078 41.2885 1.2803 41.289ZM10.8689 39.5374C10.8689 39.6593 10.8204 39.7763 10.7341 39.8625C10.6477 39.9487 10.5305 39.9972 10.4084 39.9972H8.93464C8.81249 39.9972 8.69535 39.9487 8.60898 39.8625C8.52261 39.7763 8.47409 39.6593 8.47409 39.5374V39.2708C8.47409 39.1488 8.52261 39.0319 8.60898 38.9457C8.69535 38.8595 8.81249 38.811 8.93464 38.811H10.4084C10.5305 38.811 10.6477 38.8595 10.7341 38.9457C10.8204 39.0319 10.8689 39.1488 10.8689 39.2708V39.5374ZM37.1203 38.2777C36.9684 38.6403 36.7125 38.95 36.3846 39.1676C36.0568 39.3852 35.6718 39.5011 35.2781 39.5006H15.3915C14.9977 39.5017 14.6124 39.3861 14.2845 39.1684C13.9565 38.9507 13.7007 38.6407 13.5493 38.2777L12.6282 36.0572H38.046L37.1203 38.2777ZM42.1863 39.5374C42.1863 39.6593 42.1378 39.7763 42.0514 39.8625C41.9651 39.9487 41.8479 39.9972 41.7258 39.9972H40.252C40.1299 39.9972 40.0127 39.9487 39.9264 39.8625C39.84 39.7763 39.7915 39.6593 39.7915 39.5374V39.2708C39.7915 39.1488 39.84 39.0319 39.9264 38.9457C40.0127 38.8595 40.1299 38.811 40.252 38.811H41.7258C41.8479 38.811 41.9651 38.8595 42.0514 38.9457C42.1378 39.0319 42.1863 39.1488 42.1863 39.2708V39.5374ZM18.5325 33.1792L18.6753 32.8344C18.769 32.6117 18.9255 32.421 19.1259 32.2855C19.3262 32.15 19.5617 32.0756 19.8036 32.0713H30.8568C31.1013 32.0723 31.34 32.1453 31.5431 32.281C31.7463 32.4168 31.9048 32.6093 31.999 32.8344L32.1417 33.1792C32.1631 33.2298 32.1716 33.2849 32.1663 33.3395C32.1611 33.3942 32.1423 33.4466 32.1117 33.4922C32.0811 33.5378 32.0396 33.5751 31.991 33.6007C31.9424 33.6263 31.8881 33.6395 31.8332 33.639H18.8411C18.7861 33.6395 18.7318 33.6263 18.6832 33.6007C18.6346 33.5751 18.5931 33.5378 18.5625 33.4922C18.5319 33.4466 18.5131 33.3942 18.5079 33.3395C18.5027 33.2849 18.5111 33.2298 18.5325 33.1792ZM48.6755 36.8066L49.0071 39.234C49.0224 39.328 49.0171 39.4242 48.9916 39.5159C48.966 39.6076 48.9208 39.6928 48.859 39.7653C48.7973 39.8379 48.7204 39.8962 48.6339 39.9363C48.5473 39.9763 48.4531 39.9971 48.3577 39.9972H43.1995V38.3145C43.1995 37.6098 43.48 36.9339 43.9792 36.4355C44.4784 35.9372 45.1555 35.6572 45.8615 35.6572H47.3629C47.684 35.6578 47.994 35.7746 48.2354 35.9859C48.4767 36.1973 48.6331 36.4889 48.6755 36.8066ZM13.0796 21.9617H37.59C37.7156 21.9651 37.8358 22.0134 37.9287 22.0978C38.0217 22.1821 38.0813 22.2969 38.0966 22.4214C38.1062 22.4788 38.1028 22.5376 38.087 22.5937C38.0711 22.6497 38.043 22.7015 38.0047 22.7454C37.9664 22.7893 37.9189 22.8242 37.8655 22.8477C37.8122 22.8712 37.7543 22.8826 37.696 22.8811H12.9737C12.9156 22.8818 12.8581 22.8698 12.8051 22.8461C12.7521 22.8224 12.705 22.7874 12.6669 22.7437C12.6288 22.7 12.6006 22.6485 12.5844 22.5929C12.5682 22.5372 12.5643 22.4787 12.573 22.4214C12.5884 22.2969 12.6479 22.1821 12.7409 22.0978C12.8338 22.0134 12.954 21.9651 13.0796 21.9617ZM12.8585 23.8788H37.8111C37.9374 23.8828 38.0583 23.9311 38.1526 24.0151C38.2469 24.0992 38.3086 24.2136 38.3269 24.3385C38.3341 24.3959 38.329 24.4542 38.3119 24.5095C38.2948 24.5649 38.2662 24.6159 38.2279 24.6594C38.1896 24.7028 38.1425 24.7377 38.0897 24.7616C38.0369 24.7855 37.9796 24.798 37.9216 24.7982H12.7526C12.6942 24.7987 12.6364 24.7867 12.5831 24.763C12.5297 24.7394 12.4821 24.7046 12.4433 24.6611C12.4045 24.6176 12.3754 24.5663 12.3581 24.5106C12.3407 24.455 12.3355 24.3963 12.3427 24.3385C12.3619 24.214 12.4238 24.1 12.5179 24.0162C12.612 23.9323 12.7324 23.8837 12.8585 23.8788ZM12.6328 25.8648H38.0414C38.1726 25.8705 38.2976 25.9227 38.3938 26.012C38.49 26.1013 38.5512 26.2219 38.5664 26.3521C38.5772 26.4125 38.5746 26.4745 38.5587 26.5338C38.5428 26.593 38.5141 26.6481 38.4746 26.695C38.435 26.7419 38.3856 26.7796 38.3299 26.8054C38.2741 26.8311 38.2133 26.8443 38.1519 26.8441H12.5177C12.4563 26.8443 12.3955 26.8311 12.3398 26.8054C12.284 26.7796 12.2346 26.7419 12.1951 26.695C12.1555 26.6481 12.1268 26.593 12.1109 26.5338C12.095 26.4745 12.0924 26.4125 12.1032 26.3521C12.1186 26.2211 12.1804 26.0999 12.2776 26.0105C12.3747 25.9211 12.5008 25.8694 12.6328 25.8648ZM12.3934 27.9244H38.2763C38.4116 27.9312 38.5401 27.9858 38.6388 28.0785C38.7375 28.1711 38.8 28.2958 38.8151 28.4302C38.8255 28.4934 38.8226 28.5581 38.8064 28.6202C38.7903 28.6822 38.7614 28.7402 38.7215 28.7904C38.6816 28.8406 38.6316 28.882 38.5748 28.9118C38.5179 28.9416 38.4555 28.9592 38.3914 28.9635H12.2782C12.2164 28.9589 12.1561 28.9419 12.101 28.9136C12.0459 28.8852 11.9971 28.846 11.9575 28.7983C11.918 28.7507 11.8885 28.6955 11.8708 28.6362C11.8531 28.5769 11.8475 28.5146 11.8545 28.4531C11.8654 28.315 11.9259 28.1854 12.0249 28.0882C12.1239 27.9911 12.2548 27.9329 12.3934 27.9244ZM1.66716 39.234L1.99415 36.8066C2.03662 36.4881 2.19366 36.1959 2.436 35.9844C2.67834 35.7729 2.98945 35.6567 3.31132 35.6572H4.80811C5.51411 35.6572 6.1912 35.9372 6.69041 36.4355C7.18963 36.9339 7.47009 37.6098 7.47009 38.3145V39.9972H2.30272C2.20825 39.9959 2.11517 39.9741 2.02991 39.9335C1.94465 39.8929 1.86923 39.8342 1.80883 39.7617C1.74842 39.6892 1.70448 39.6045 1.68003 39.5134C1.65557 39.4223 1.65118 39.3269 1.66716 39.234Z" fill="#BF0A30"/>
<path d="M49.1038 42.2039H1.56587C1.15057 42.2039 0.75229 42.3686 0.458632 42.6617C0.164975 42.9548 0 43.3524 0 43.767C0 44.1816 0.164975 44.5791 0.458632 44.8723C0.75229 45.1654 1.15057 45.3301 1.56587 45.3301H49.1038C49.5191 45.3301 49.9174 45.1654 50.211 44.8723C50.5047 44.5791 50.6697 44.1816 50.6697 43.767C50.6697 43.3524 50.5047 42.9548 50.211 42.6617C49.9174 42.3686 49.5191 42.2039 49.1038 42.2039Z" fill="#BF0A30"/>
<path d="M14.1895 5.02034C13.8386 5.01913 13.4908 5.08709 13.1662 5.22032C12.8417 5.35355 12.5466 5.54943 12.298 5.79673C12.0494 6.04403 11.8522 6.33788 11.7176 6.66144C11.583 6.98499 11.5137 7.33188 11.5137 7.68222V16.5506H23.3775C23.8221 16.5506 24.2485 16.3742 24.5629 16.0604C24.8773 15.7466 25.0539 15.3209 25.0539 14.8771V6.1421C25.0539 5.84775 24.9381 5.56518 24.7313 5.35533C24.5245 5.14548 24.2434 5.02517 23.9486 5.02034H14.1895Z" fill="#BF0A30"/>
<path d="M26.7441 5.02032C26.4461 5.02032 26.1602 5.13851 25.9495 5.34888C25.7388 5.55925 25.6204 5.84457 25.6204 6.14208V14.8771C25.6204 15.3209 25.797 15.7466 26.1114 16.0604C26.4258 16.3742 26.8522 16.5505 27.2968 16.5505H39.1467V7.6822C39.1467 7.33264 39.0777 6.9865 38.9437 6.66355C38.8097 6.34059 38.6133 6.04715 38.3657 5.79997C38.1181 5.55279 37.8241 5.35672 37.5006 5.22295C37.177 5.08918 36.8303 5.02032 36.4801 5.02032H26.7441Z" fill="#BF0A30"/>
<path d="M37.719 50.9205C37.7184 51.1115 37.7556 51.3007 37.8285 51.4772C37.9015 51.6537 38.0086 51.8141 38.1439 51.9491C38.2792 52.0842 38.4398 52.1911 38.6167 52.2639C38.7935 52.3367 38.983 52.3739 39.1743 52.3733H45.6543C46.0402 52.3733 46.4104 52.2202 46.6833 51.9478C46.9563 51.6753 47.1096 51.3058 47.1096 50.9205V46.176H37.719V50.9205Z" fill="#BF0A30"/>
<path d="M3.56416 50.9205C3.56355 51.1111 3.60063 51.2999 3.67326 51.4761C3.7459 51.6523 3.85266 51.8125 3.98743 51.9475C4.12221 52.0825 4.28234 52.1895 4.45865 52.2626C4.63496 52.3357 4.82399 52.3733 5.01489 52.3733H11.5132C11.7041 52.3733 11.8932 52.3357 12.0695 52.2626C12.2458 52.1895 12.4059 52.0825 12.5407 51.9475C12.6755 51.8125 12.7822 51.6523 12.8549 51.4761C12.9275 51.2999 12.9646 51.1111 12.964 50.9205V46.176H3.56416V50.9205Z" fill="#BF0A30"/>
<path d="M10.4353 6.98801C10.4413 6.22994 10.7473 5.50498 11.2864 4.97108C11.8256 4.43718 12.5543 4.13761 13.3137 4.13764H15.6809C15.7654 3.71909 15.9931 3.34292 16.325 3.07366C16.657 2.80439 17.0724 2.65881 17.5001 2.66188H33.1818C33.6095 2.65881 34.0249 2.80439 34.3569 3.07366C34.6888 3.34292 34.9165 3.71909 35.001 4.13764H37.3728C38.1362 4.13764 38.8684 4.44037 39.4082 4.97922C39.948 5.51808 40.2512 6.24893 40.2512 7.011V16.5505H45.1699V0H5.49817V16.5505H10.4353V6.98801Z" fill="#BF0A30"/>
</g>
<defs>
<clipPath id="clip0">
<rect width="50.6697" height="52.3733" fill="white"/>
</clipPath>
</defs>
</svg>
