<svg width="250" height="105" viewBox="0 0 250 105" fill="none" xmlns="http://www.w3.org/2000/svg">
<path d="M76.7614 40.2188H86.4224V0.263062H76.7614V40.2188Z" fill="white"/>
<path d="M90.5272 52.2985H101.628L121.043 16.4312H109.942L105.112 26.4666L99.2593 16.4312H88.1584L99.445 35.6193L90.5272 52.2985Z" fill="white"/>
<path d="M123.209 40.2188H132.87V27.117C132.87 25.9246 133.226 24.9721 133.938 24.2597C134.65 23.5319 135.595 23.1679 136.771 23.1679C137.948 23.1679 138.892 23.5319 139.604 24.2597C140.317 24.9721 140.673 25.9246 140.673 27.117V40.2188H150.334V25.0263C150.334 23.2454 149.916 21.658 149.08 20.2642C148.244 18.8549 147.106 17.7398 145.666 16.919C144.241 16.0982 142.624 15.6878 140.812 15.6878C139.388 15.6878 137.979 15.9511 136.585 16.4777C135.207 16.9887 133.969 17.7166 132.87 18.6613V16.4312H123.209V40.2188Z" fill="white"/>
<path d="M166.821 40.9622C169.484 40.9622 171.938 40.0949 174.183 38.3604V40.2188H183.844V0.263062H174.183V17.9644C173.254 17.2365 172.178 16.679 170.955 16.2918C169.732 15.8892 168.439 15.6878 167.077 15.6878C164.77 15.6878 162.718 16.2454 160.922 17.3604C159.142 18.46 157.741 19.9622 156.719 21.867C155.697 23.7719 155.186 25.9246 155.186 28.325C155.186 30.8029 155.712 32.9943 156.765 34.8991C157.834 36.804 159.25 38.2907 161.015 39.3593C162.78 40.4279 164.715 40.9622 166.821 40.9622ZM169.84 32.7852C168.524 32.7852 167.456 32.3748 166.635 31.554C165.815 30.7177 165.404 29.6646 165.404 28.3947C165.404 27.0938 165.83 26.0175 166.682 25.1657C167.549 24.2985 168.617 23.8648 169.887 23.8648C171.156 23.8648 172.217 24.2985 173.068 25.1657C173.935 26.0175 174.369 27.0861 174.369 28.3715C174.369 29.6414 173.943 30.6945 173.091 31.5308C172.255 32.367 171.172 32.7852 169.84 32.7852Z" fill="white"/>
<path d="M202.791 40.9622C205.392 40.9622 207.745 40.4047 209.851 39.2896C211.972 38.1591 213.59 36.6104 214.705 34.6436L207.784 31.2055C206.948 32.0108 206.212 32.5684 205.578 32.8781C204.958 33.1878 204.215 33.3427 203.348 33.3427C201.939 33.3427 200.84 33.0175 200.05 32.367C199.261 31.7166 198.866 30.8184 198.866 29.6723H214.983C215.03 29.0684 215.053 28.6812 215.053 28.5108C215.068 28.325 215.076 28.1314 215.076 27.9301C215.076 25.4987 214.55 23.3693 213.497 21.5418C212.444 19.6989 210.981 18.2664 209.108 17.2443C207.25 16.2066 205.082 15.6878 202.605 15.6878C200.019 15.6878 197.689 16.2454 195.615 17.3604C193.54 18.46 191.899 19.9622 190.691 21.867C189.484 23.7564 188.88 25.8936 188.88 28.2785C188.88 30.679 189.491 32.8394 190.715 34.7597C191.938 36.6646 193.594 38.1746 195.684 39.2896C197.79 40.4047 200.159 40.9622 202.791 40.9622ZM199.145 25.1193C199.176 23.2608 200.244 22.3316 202.35 22.3316C204.254 22.3316 205.353 23.2608 205.647 25.1193H199.145Z" fill="white"/>
<path d="M220.412 40.2188H230.073V27.117C230.073 25.9246 230.429 24.9721 231.141 24.2597C231.854 23.5319 232.798 23.1679 233.975 23.1679C235.151 23.1679 236.096 23.5319 236.808 24.2597C237.52 24.9721 237.876 25.9246 237.876 27.117V40.2188H247.537V25.0263C247.537 23.2454 247.119 21.658 246.283 20.2642C245.447 18.8549 244.309 17.7398 242.869 16.919C241.445 16.0982 239.827 15.6878 238.016 15.6878C236.591 15.6878 235.182 15.9511 233.789 16.4777C232.411 16.9887 231.172 17.7166 230.073 18.6613V16.4312H220.412V40.2188Z" fill="white"/>
<path d="M13.0797 93.3355C14.2099 93.3355 15.3711 93.1883 16.5633 92.8941C17.7554 92.6153 18.8469 92.2204 19.8378 91.7094L17.4225 83.9505C16.7568 84.4461 16.1143 84.6939 15.495 84.6939C14.4886 84.6939 13.9854 84.0744 13.9854 82.8355V76.1452H18.7231V68.8045H13.9854V59.8841H4.32442V68.8045H0.608643V76.1452H4.32442V83.5788C4.32442 86.6452 5.0908 89.0379 6.62356 90.7569C8.1718 92.4759 10.3239 93.3355 13.0797 93.3355Z" fill="white"/>
<path d="M25.1433 92.5921H34.8043V80.9306C34.8043 80.1408 35.0288 79.4052 35.4778 78.7237C35.9268 78.0423 36.5151 77.4925 37.2428 77.0744C37.986 76.6408 38.7678 76.424 39.5884 76.424C40.2386 76.424 40.9508 76.5556 41.725 76.8189C42.5146 77.0821 43.1958 77.4306 43.7686 77.8642L47.8095 69.7337C47.1438 69.2381 46.3 68.8355 45.2782 68.5257C44.2563 68.216 43.2887 68.0611 42.3752 68.0611C40.9663 68.0611 39.5961 68.4251 38.2646 69.1529C36.9486 69.8653 35.7952 70.8642 34.8043 72.1496V68.8045H25.1433V92.5921Z" fill="white"/>
<path d="M59.6187 93.3355C62.2043 93.3355 64.6196 92.4682 66.8645 90.7337V92.5921H76.5255V68.8045H66.8645V70.3377C64.8518 68.82 62.4365 68.0611 59.6187 68.0611C57.3119 68.0611 55.2759 68.6187 53.5109 69.7337C51.7459 70.8487 50.3603 72.3587 49.3539 74.2636C48.363 76.1529 47.8676 78.2824 47.8676 80.6518C47.8676 83.0987 48.394 85.2824 49.4468 87.2027C50.4996 89.1076 51.9162 90.6098 53.6967 91.7094C55.4772 92.7934 57.4512 93.3355 59.6187 93.3355ZM62.5914 85.1585C61.2908 85.1585 60.2148 84.7403 59.3633 83.904C58.5117 83.0523 58.086 81.9837 58.086 80.6983C58.086 79.4129 58.5117 78.3521 59.3633 77.5158C60.2303 76.664 61.3063 76.2381 62.5914 76.2381C63.8764 76.2381 64.9369 76.664 65.773 77.5158C66.6245 78.3521 67.0503 79.4129 67.0503 80.6983C67.0503 81.9837 66.6323 83.0523 65.7962 83.904C64.9602 84.7403 63.8919 85.1585 62.5914 85.1585Z" fill="white"/>
<path d="M83.8373 92.5921H93.4984V79.4903C93.4984 78.2979 93.8544 77.3454 94.5666 76.633C95.2788 75.9052 96.2233 75.5412 97.3999 75.5412C98.5766 75.5412 99.521 75.9052 100.233 76.633C100.945 77.3454 101.301 78.2979 101.301 79.4903V92.5921H110.962V77.3996C110.962 75.6186 110.544 74.0313 109.708 72.6375C108.872 71.2282 107.734 70.1131 106.295 69.2923C104.87 68.4715 103.252 68.0611 101.441 68.0611C100.016 68.0611 98.6075 68.3244 97.2141 68.851C95.8362 69.362 94.5976 70.0899 93.4984 71.0346V68.8045H83.8373V92.5921Z" fill="white"/>
<path d="M124.668 93.3355C128.415 93.3355 131.279 92.6308 133.261 91.2215C135.243 89.7967 136.234 87.7293 136.234 85.0191C136.234 83.6098 135.978 82.4715 135.467 81.6043C134.972 80.737 134.298 80.0401 133.447 79.5136C132.611 78.987 131.666 78.5456 130.614 78.1894C130.041 77.9881 129.367 77.7481 128.593 77.4693C127.819 77.1906 127.138 76.8808 126.55 76.5401C125.977 76.1994 125.69 75.8432 125.69 75.4715C125.69 75.2083 125.853 74.9837 126.178 74.7979C126.519 74.612 126.991 74.5191 127.595 74.5191C128.818 74.5191 130.614 74.9682 132.982 75.8664L136.002 69.5014C134.175 69.0058 132.572 68.6496 131.194 68.4328C129.832 68.216 128.601 68.1076 127.502 68.1076C125.334 68.1076 123.422 68.456 121.765 69.1529C120.109 69.8498 118.816 70.8178 117.887 72.0567C116.958 73.2956 116.494 74.7282 116.494 76.3543C116.494 77.5777 116.749 78.5844 117.26 79.3742C117.771 80.164 118.437 80.8144 119.257 81.3255C120.093 81.8366 120.984 82.3012 121.928 82.7193C123.43 83.3698 124.49 83.8344 125.11 84.1131C125.744 84.3764 126.062 84.7945 126.062 85.3675C126.062 85.9715 125.605 86.2735 124.692 86.2735C123.004 86.2735 120.999 85.5456 118.677 84.0899L114.868 90.7802C117.268 92.4837 120.535 93.3355 124.668 93.3355Z" fill="white"/>
<path d="M141.851 104.672H151.512V90.7337C153.741 92.4682 156.195 93.3355 158.874 93.3355C161.072 93.3355 163.046 92.7779 164.796 91.6629C166.561 90.5479 167.954 89.0379 168.976 87.133C169.998 85.2282 170.509 83.0833 170.509 80.6983C170.509 78.2824 169.99 76.122 168.953 74.2171C167.931 72.3122 166.522 70.81 164.726 69.7105C162.946 68.6109 160.918 68.0611 158.642 68.0611C155.87 68.0611 153.494 68.82 151.512 70.3377V68.8045H141.851V104.672ZM155.855 85.1585C154.539 85.1585 153.455 84.7403 152.604 83.904C151.752 83.0678 151.326 82.0069 151.326 80.7215C151.326 79.4361 151.76 78.3675 152.627 77.5158C153.494 76.664 154.562 76.2381 155.832 76.2381C157.101 76.2381 158.162 76.6717 159.013 77.539C159.865 78.3908 160.291 79.4594 160.291 80.7448C160.291 82.0302 159.872 83.091 159.036 83.9273C158.216 84.7481 157.155 85.1585 155.855 85.1585Z" fill="white"/>
<path d="M188.086 93.3355C190.81 93.3355 193.264 92.8012 195.447 91.7326C197.646 90.6485 199.38 89.1618 200.65 87.2724C201.935 85.3675 202.577 83.1762 202.577 80.6983C202.577 78.2204 201.935 76.0368 200.65 74.1474C199.38 72.2425 197.646 70.7558 195.447 69.6872C193.264 68.6032 190.81 68.0611 188.086 68.0611C185.361 68.0611 182.899 68.6032 180.7 69.6872C178.517 70.7558 176.783 72.2425 175.498 74.1474C174.229 76.0368 173.594 78.2204 173.594 80.6983C173.594 83.1762 174.229 85.3675 175.498 87.2724C176.783 89.1618 178.517 90.6485 180.7 91.7326C182.899 92.8012 185.361 93.3355 188.086 93.3355ZM188.086 85.1585C186.909 85.1585 185.887 84.7481 185.02 83.9273C184.153 83.091 183.72 82.0147 183.72 80.6983C183.72 79.3664 184.153 78.2901 185.02 77.4693C185.887 76.6485 186.909 76.2381 188.086 76.2381C189.278 76.2381 190.3 76.6485 191.151 77.4693C192.018 78.2901 192.452 79.3664 192.452 80.6983C192.452 82.0147 192.018 83.091 191.151 83.9273C190.3 84.7481 189.278 85.1585 188.086 85.1585Z" fill="white"/>
<path d="M207.485 92.5921H217.146V80.9306C217.146 80.1408 217.37 79.4052 217.819 78.7237C218.268 78.0423 218.857 77.4925 219.584 77.0744C220.328 76.6408 221.109 76.424 221.93 76.424C222.58 76.424 223.292 76.5556 224.067 76.8189C224.856 77.0821 225.537 77.4306 226.11 77.8642L230.151 69.7337C229.485 69.2381 228.642 68.8355 227.62 68.5257C226.598 68.216 225.63 68.0611 224.717 68.0611C223.308 68.0611 221.938 68.4251 220.606 69.1529C219.29 69.8653 218.137 70.8642 217.146 72.1496V68.8045H207.485V92.5921Z" fill="white"/>
<path d="M242.277 93.3355C243.407 93.3355 244.568 93.1883 245.76 92.8941C246.952 92.6153 248.044 92.2204 249.035 91.7094L246.62 83.9505C245.954 84.4461 245.311 84.6939 244.692 84.6939C243.686 84.6939 243.182 84.0744 243.182 82.8355V76.1452H247.92V68.8045H243.182V59.8841H233.521V68.8045H229.806V76.1452H233.521V83.5788C233.521 86.6452 234.288 89.0379 235.821 90.7569C237.369 92.4759 239.521 93.3355 242.277 93.3355Z" fill="white"/>
<g clip-path="url(#clip0)">
<path d="M2.28861 40.9947H50.7113C50.8718 40.9942 51.0304 40.9599 51.1764 40.8942C51.3224 40.8284 51.4524 40.7326 51.5578 40.6133C51.6632 40.494 51.7414 40.3539 51.7873 40.2024C51.8331 40.0509 51.8456 39.8915 51.8238 39.7349L51.2722 35.8002C51.2042 35.3307 50.9666 34.9011 50.6031 34.5901C50.2396 34.2791 49.7744 34.1075 49.2928 34.1067H48.1015V25.402H49.3021V15.5972H50.7576C50.9801 15.5972 51.1936 15.5102 51.3509 15.3553C51.5082 15.2003 51.5966 14.9902 51.5966 14.771V9.58565C51.5966 9.36653 51.5082 9.15639 51.3509 9.00145C51.1936 8.84651 50.9801 8.75946 50.7576 8.75946H48.0412C47.931 8.75946 47.8219 8.78083 47.7201 8.82235C47.6183 8.86387 47.5258 8.92473 47.4479 9.00145C47.37 9.07817 47.3082 9.16924 47.266 9.26948C47.2239 9.36972 47.2022 9.47716 47.2022 9.58565V14.771C47.2022 14.9902 47.2906 15.2003 47.4479 15.3553C47.6053 15.5102 47.8187 15.5972 48.0412 15.5972H48.1015V18.1169H43.9295V30.8978L42.8355 22.3985C42.6791 21.2153 42.0911 20.1285 41.1811 19.3408C40.271 18.553 39.1011 18.118 37.8894 18.1169H15.1151C13.9029 18.1161 12.7319 18.5504 11.8214 19.3385C10.911 20.1266 10.3235 21.2145 10.169 22.3985L9.0472 30.9161V18.1352H4.89841V15.5972H4.95867C5.18119 15.5972 5.39461 15.5102 5.55195 15.3553C5.7093 15.2003 5.7977 14.9902 5.7977 14.771V9.58565C5.7977 9.36653 5.7093 9.15639 5.55195 9.00145C5.39461 8.84651 5.18119 8.75946 4.95867 8.75946H2.24689C2.02437 8.75946 1.81096 8.84651 1.65361 9.00145C1.49626 9.15639 1.40786 9.36653 1.40786 9.58565V14.771C1.40786 14.9902 1.49626 15.2003 1.65361 15.3553C1.81096 15.5102 2.02437 15.5972 2.24689 15.5972H3.69781V25.402H4.89841V34.1067H3.70708C3.22576 34.1066 2.76066 34.2781 2.39769 34.5893C2.03472 34.9006 1.79839 35.3307 1.73235 35.8002L1.17609 39.7349C1.15428 39.8915 1.16673 40.0509 1.21261 40.2024C1.25848 40.3539 1.33672 40.494 1.44207 40.6133C1.54742 40.7326 1.67746 40.8284 1.82346 40.8942C1.96946 40.9599 2.12806 40.9942 2.28861 40.9947ZM11.9398 39.2556C11.9398 39.3767 11.8909 39.4928 11.804 39.5784C11.7171 39.664 11.5992 39.7121 11.4762 39.7121H9.99285C9.8699 39.7121 9.752 39.664 9.66506 39.5784C9.57813 39.4928 9.52929 39.3767 9.52929 39.2556V38.9908C9.52929 38.8698 9.57813 38.7537 9.66506 38.6681C9.752 38.5825 9.8699 38.5344 9.99285 38.5344H11.4762C11.5992 38.5344 11.7171 38.5825 11.804 38.6681C11.8909 38.7537 11.9398 38.8698 11.9398 38.9908V39.2556ZM38.3622 38.0049C38.2094 38.3649 37.9518 38.6723 37.6218 38.8884C37.2918 39.1045 36.9043 39.2195 36.508 39.2191H16.4918C16.0954 39.2201 15.7076 39.1053 15.3776 38.8892C15.0475 38.673 14.79 38.3653 14.6376 38.0049L13.7105 35.8002H39.294L38.3622 38.0049ZM43.4613 39.2556C43.4613 39.3767 43.4125 39.4928 43.3255 39.5784C43.2386 39.664 43.1207 39.7121 42.9978 39.7121H41.5144C41.3914 39.7121 41.2735 39.664 41.1866 39.5784C41.0997 39.4928 41.0508 39.3767 41.0508 39.2556V38.9908C41.0508 38.8698 41.0997 38.7537 41.1866 38.6681C41.2735 38.5825 41.3914 38.5344 41.5144 38.5344H42.9978C43.1207 38.5344 43.2386 38.5825 43.3255 38.6681C43.4125 38.7537 43.4613 38.8698 43.4613 38.9908V39.2556ZM19.6533 32.9427L19.797 32.6004C19.8913 32.3793 20.0489 32.1899 20.2505 32.0554C20.4521 31.9209 20.6892 31.847 20.9327 31.8427H32.0579C32.304 31.8437 32.5442 31.9162 32.7487 32.0509C32.9532 32.1857 33.1128 32.3768 33.2075 32.6004L33.3512 32.9427C33.3728 32.9929 33.3813 33.0476 33.376 33.1019C33.3707 33.1561 33.3518 33.2082 33.321 33.2535C33.2902 33.2988 33.2485 33.3358 33.1995 33.3612C33.1506 33.3867 33.096 33.3997 33.0407 33.3992H19.9639C19.9085 33.3997 19.8539 33.3867 19.805 33.3612C19.756 33.3358 19.7143 33.2988 19.6835 33.2535C19.6527 33.2082 19.6338 33.1561 19.6285 33.1019C19.6232 33.0476 19.6317 32.9929 19.6533 32.9427ZM49.9928 36.5442L50.3265 38.9543C50.342 39.0476 50.3366 39.1431 50.3109 39.2342C50.2852 39.3253 50.2396 39.4098 50.1775 39.4819C50.1153 39.5539 50.038 39.6118 49.9509 39.6516C49.8638 39.6913 49.7689 39.712 49.6729 39.7121H44.4811V38.0414C44.4811 37.3417 44.7634 36.6706 45.2659 36.1758C45.7683 35.681 46.4498 35.4031 47.1605 35.4031H48.6716C48.9948 35.4036 49.3068 35.5195 49.5498 35.7294C49.7927 35.9393 49.9501 36.2288 49.9928 36.5442ZM14.1648 21.8051H38.8351C38.9615 21.8085 39.0824 21.8565 39.176 21.9402C39.2695 22.024 39.3295 22.138 39.345 22.2616C39.3545 22.3186 39.3512 22.377 39.3352 22.4326C39.3192 22.4882 39.2909 22.5396 39.2524 22.5833C39.2139 22.6269 39.1661 22.6615 39.1123 22.6848C39.0586 22.7081 39.0003 22.7195 38.9417 22.718H14.0582C13.9998 22.7187 13.9419 22.7068 13.8886 22.6832C13.8352 22.6597 13.7878 22.625 13.7494 22.5816C13.711 22.5382 13.6827 22.4871 13.6664 22.4318C13.6501 22.3766 13.6462 22.3185 13.6549 22.2616C13.6704 22.138 13.7303 22.024 13.8239 21.9402C13.9175 21.8565 14.0384 21.8085 14.1648 21.8051ZM13.9423 23.7085H39.0576C39.1847 23.7126 39.3064 23.7605 39.4013 23.844C39.4962 23.9274 39.5583 24.041 39.5767 24.165C39.584 24.222 39.5788 24.2799 39.5616 24.3348C39.5444 24.3898 39.5156 24.4405 39.4771 24.4836C39.4385 24.5267 39.3911 24.5613 39.338 24.5851C39.2848 24.6089 39.2272 24.6213 39.1688 24.6215H13.8357C13.7769 24.6219 13.7188 24.61 13.6651 24.5865C13.6114 24.563 13.5634 24.5285 13.5243 24.4853C13.4853 24.4421 13.4561 24.3912 13.4386 24.3359C13.4211 24.2807 13.4159 24.2224 13.4231 24.165C13.4424 24.0414 13.5048 23.9283 13.5995 23.845C13.6942 23.7617 13.8154 23.7135 13.9423 23.7085ZM13.7152 25.6805H39.2893C39.4215 25.6861 39.5472 25.7379 39.644 25.8266C39.7409 25.9152 39.8025 26.035 39.8178 26.1643C39.8287 26.2242 39.826 26.2858 39.81 26.3446C39.7941 26.4035 39.7652 26.4581 39.7253 26.5047C39.6855 26.5513 39.6358 26.5887 39.5797 26.6143C39.5236 26.6399 39.4624 26.653 39.4006 26.6527H13.5993C13.5374 26.653 13.4763 26.6399 13.4202 26.6143C13.3641 26.5887 13.3143 26.5513 13.2745 26.5047C13.2347 26.4581 13.2058 26.4035 13.1898 26.3446C13.1739 26.2858 13.1712 26.2242 13.1821 26.1643C13.1975 26.0342 13.2598 25.9139 13.3576 25.8251C13.4554 25.7363 13.5822 25.685 13.7152 25.6805ZM13.4741 27.7254H39.5257C39.6619 27.7321 39.7913 27.7863 39.8906 27.8783C39.99 27.9703 40.0529 28.0941 40.0681 28.2275C40.0786 28.2903 40.0756 28.3546 40.0594 28.4162C40.0432 28.4778 40.014 28.5353 39.9739 28.5852C39.9337 28.6351 39.8834 28.6761 39.8262 28.7057C39.769 28.7353 39.7061 28.7528 39.6416 28.757H13.3582C13.296 28.7525 13.2353 28.7356 13.1799 28.7075C13.1244 28.6793 13.0753 28.6404 13.0355 28.5931C12.9956 28.5457 12.9659 28.491 12.9481 28.4321C12.9303 28.3732 12.9247 28.3114 12.9318 28.2503C12.9427 28.1131 13.0036 27.9845 13.1033 27.888C13.2029 27.7915 13.3346 27.7338 13.4741 27.7254ZM2.67799 38.9543L3.00712 36.5442C3.04986 36.228 3.20793 35.9379 3.45185 35.7279C3.69577 35.5179 4.0089 35.4025 4.33288 35.4031H5.83942C6.55002 35.4031 7.23152 35.681 7.73399 36.1758C8.23646 36.6706 8.51875 37.3417 8.51875 38.0414V39.7121H3.3177C3.22261 39.7108 3.12893 39.6892 3.04311 39.6488C2.95729 39.6085 2.88138 39.5503 2.82058 39.4783C2.75979 39.4063 2.71556 39.3222 2.69095 39.2317C2.66633 39.1413 2.66191 39.0466 2.67799 38.9543Z" fill="white"/>
<path d="M50.4239 41.9031H2.57608C2.15808 41.9031 1.75719 42.0666 1.46162 42.3576C1.16605 42.6487 1 43.0434 1 43.455C1 43.8666 1.16605 44.2614 1.46162 44.5524C1.75719 44.8435 2.15808 45.007 2.57608 45.007H50.4239C50.8419 45.007 51.2428 44.8435 51.5384 44.5524C51.834 44.2614 52 43.8666 52 43.455C52 43.0434 51.834 42.6487 51.5384 42.3576C51.2428 42.0666 50.8419 41.9031 50.4239 41.9031Z" fill="white"/>
<path d="M15.282 4.98457C14.9287 4.98337 14.5787 5.05085 14.252 5.18313C13.9253 5.31541 13.6283 5.50989 13.3781 5.75543C13.1279 6.00096 12.9294 6.29272 12.7939 6.61397C12.6585 6.93522 12.5887 7.27964 12.5887 7.62748V16.4326H24.5299C24.9774 16.4326 25.4065 16.2576 25.723 15.946C26.0394 15.6344 26.2172 15.2118 26.2172 14.7711V6.09834C26.2172 5.80609 26.1006 5.52553 25.8925 5.31717C25.6844 5.10882 25.4014 4.98936 25.1047 4.98457H15.282Z" fill="white"/>
<path d="M27.9184 4.98456C27.6184 4.98456 27.3308 5.1019 27.1186 5.31077C26.9065 5.51964 26.7874 5.80293 26.7874 6.09832V14.7711C26.7874 15.2117 26.9651 15.6343 27.2816 15.9459C27.598 16.2575 28.0272 16.4326 28.4747 16.4326H40.4019V7.62746C40.4019 7.28039 40.3324 6.93672 40.1976 6.61607C40.0627 6.29542 39.865 6.00406 39.6158 5.75865C39.3665 5.51323 39.0706 5.31856 38.745 5.18574C38.4194 5.05292 38.0704 4.98456 37.7179 4.98456H27.9184Z" fill="white"/>
<path d="M38.965 50.5576C38.9644 50.7472 39.0018 50.935 39.0752 51.1103C39.1486 51.2856 39.2565 51.4448 39.3926 51.5789C39.5288 51.7129 39.6905 51.8192 39.8685 51.8914C40.0465 51.9637 40.2373 52.0006 40.4298 52H46.952C47.3405 52 47.713 51.848 47.9878 51.5775C48.2625 51.307 48.4168 50.9402 48.4168 50.5576V45.8469H38.965V50.5576Z" fill="white"/>
<path d="M4.58741 50.5576C4.5868 50.7468 4.62412 50.9343 4.69723 51.1092C4.77034 51.2842 4.8778 51.4433 5.01345 51.5773C5.1491 51.7113 5.31028 51.8176 5.48774 51.8901C5.6652 51.9627 5.85545 52 6.0476 52H12.5883C12.7805 52 12.9707 51.9627 13.1482 51.8901C13.3256 51.8176 13.4868 51.7113 13.6225 51.5773C13.7581 51.4433 13.8656 51.2842 13.9387 51.1092C14.0118 50.9343 14.0491 50.7468 14.0485 50.5576V45.8469H4.58741V50.5576Z" fill="white"/>
<path d="M11.5033 6.9382C11.5095 6.18553 11.8174 5.46574 12.3601 4.93565C12.9027 4.40556 13.6362 4.10812 14.4005 4.10815H16.7832C16.8682 3.69258 17.0974 3.3191 17.4315 3.05175C17.7656 2.7844 18.1837 2.63986 18.6142 2.64291H34.3982C34.8287 2.63986 35.2468 2.7844 35.5809 3.05175C35.915 3.3191 36.1442 3.69258 36.2292 4.10815H38.6165C39.3849 4.10815 40.1218 4.40872 40.6651 4.94374C41.2085 5.47875 41.5137 6.20439 41.5137 6.96103V16.4326H46.4644V0H6.53406V16.4326H11.5033V6.9382Z" fill="white"/>
</g>
<defs>
<clipPath id="clip0">
<rect width="51" height="52" fill="white" transform="translate(1)"/>
</clipPath>
</defs>
</svg>
