<svg width="16" height="16" viewBox="0 0 16 16" fill="none" xmlns="http://www.w3.org/2000/svg">
<path d="M14.324 11.8452H13.0429C12.9554 11.8452 12.8734 11.8835 12.8187 11.9509C12.6912 12.1058 12.5545 12.2553 12.4105 12.3974C11.8217 12.9868 11.1243 13.4565 10.3568 13.7806C9.5616 14.1164 8.70694 14.2887 7.84376 14.2872C6.97086 14.2872 6.12529 14.1159 5.33075 13.7806C4.56323 13.4565 3.86578 12.9868 3.27697 12.3974C2.68711 11.81 2.21677 11.1138 1.892 10.3473C1.55486 9.55273 1.38538 8.70899 1.38538 7.83609C1.38538 6.96319 1.55668 6.11944 1.892 5.3249C2.21637 4.5577 2.68289 3.86703 3.27697 3.27477C3.87106 2.68251 4.56172 2.21599 5.33075 1.89162C6.12529 1.55631 6.97086 1.38501 7.84376 1.38501C8.71666 1.38501 9.56223 1.55448 10.3568 1.89162C11.1258 2.21599 11.8165 2.68251 12.4105 3.27477C12.5545 3.41874 12.6894 3.56817 12.8187 3.72125C12.8734 3.78867 12.9572 3.82694 13.0429 3.82694H14.324C14.4388 3.82694 14.5099 3.69938 14.4461 3.60279C13.0484 1.43056 10.6028 -0.00726177 7.82371 2.75878e-05C3.45739 0.0109616 -0.0433308 3.55541 0.000405388 7.91627C0.0441416 12.2079 3.53939 15.6721 7.84376 15.6721C10.6155 15.6721 13.0502 14.2361 14.4461 12.0694C14.5081 11.9728 14.4388 11.8452 14.324 11.8452ZM15.9441 7.72128L13.3582 5.68026C13.2616 5.60372 13.1213 5.67297 13.1213 5.79507V7.18005H7.39911C7.31893 7.18005 7.25332 7.24565 7.25332 7.32583V8.34634C7.25332 8.42653 7.31893 8.49213 7.39911 8.49213H13.1213V9.87711C13.1213 9.9992 13.2634 10.0685 13.3582 9.99192L15.9441 7.9509C15.9615 7.93726 15.9756 7.91983 15.9853 7.89994C15.995 7.88005 16 7.85821 16 7.83609C16 7.81396 15.995 7.79212 15.9853 7.77223C15.9756 7.75234 15.9615 7.73492 15.9441 7.72128Z" fill="white"/>
</svg>
