<svg width="16" height="16" viewBox="0 0 16 16" fill="none" xmlns="http://www.w3.org/2000/svg">
<path d="M1.55004 9.77659L2.57348 8.90159C2.52504 8.60471 2.50004 8.30159 2.50004 7.99846C2.50004 7.69534 2.52504 7.39221 2.57348 7.09534L1.55004 6.22034C1.47285 6.15425 1.4176 6.06624 1.39164 5.96799C1.36569 5.86974 1.37025 5.76592 1.40473 5.67034L1.41879 5.62971C1.70055 4.84225 2.12245 4.11227 2.66411 3.47502L2.69223 3.44221C2.75794 3.36495 2.84552 3.30941 2.94342 3.28291C3.04133 3.25641 3.14496 3.2602 3.24067 3.29377L4.51098 3.74534C4.97973 3.36096 5.50317 3.05784 6.0688 2.84534L6.31411 1.51721C6.33261 1.41728 6.38109 1.32534 6.4531 1.25361C6.5251 1.18189 6.61723 1.13377 6.71723 1.11565L6.75942 1.10784C7.57348 0.960962 8.42973 0.960962 9.2438 1.10784L9.28598 1.11565C9.38599 1.13377 9.47811 1.18189 9.55012 1.25361C9.62212 1.32534 9.6706 1.41728 9.68911 1.51721L9.93598 2.85159C10.4971 3.06413 11.0196 3.3671 11.4829 3.74846L12.7625 3.29377C12.8582 3.25993 12.9619 3.25601 13.0599 3.28252C13.1579 3.30904 13.2454 3.36473 13.311 3.44221L13.3391 3.47502C13.8801 4.11272 14.302 4.84258 14.5844 5.62971L14.5985 5.67034C14.6688 5.86565 14.611 6.0844 14.4532 6.22034L13.4172 7.10471C13.4657 7.39846 13.4891 7.69846 13.4891 7.9969C13.4891 8.2969 13.4657 8.5969 13.4172 8.88909L14.4532 9.77346C14.5304 9.83955 14.5856 9.92756 14.6116 10.0258C14.6375 10.1241 14.633 10.2279 14.5985 10.3235L14.5844 10.3641C14.3016 11.1516 13.8829 11.8781 13.3391 12.5188L13.311 12.5516C13.2453 12.6288 13.1577 12.6844 13.0598 12.7109C12.9619 12.7374 12.8583 12.7336 12.7625 12.7L11.4829 12.2453C11.0172 12.6281 10.4969 12.9313 9.93598 13.1422L9.68911 14.4766C9.6706 14.5765 9.62212 14.6685 9.55012 14.7402C9.47811 14.8119 9.38599 14.86 9.28598 14.8781L9.2438 14.886C8.42225 15.0336 7.58096 15.0336 6.75942 14.886L6.71723 14.8781C6.61723 14.86 6.5251 14.8119 6.4531 14.7402C6.38109 14.6685 6.33261 14.5765 6.31411 14.4766L6.0688 13.1485C5.5034 12.9365 4.97701 12.6324 4.51098 12.2485L3.24067 12.7C3.14499 12.7339 3.04128 12.7378 2.94332 12.7113C2.84536 12.6848 2.75778 12.6291 2.69223 12.5516L2.66411 12.5188C2.12036 11.8766 1.70161 11.1516 1.41879 10.3641L1.40473 10.3235C1.33442 10.1313 1.39223 9.91252 1.55004 9.77659ZM3.68286 7.27971C3.6438 7.51565 3.62348 7.75784 3.62348 8.00002C3.62348 8.24221 3.6438 8.4844 3.68286 8.72034L3.78598 9.3469L2.61879 10.3453C2.79574 10.753 3.01909 11.1389 3.28442 11.4953L4.73442 10.9813L5.22505 11.3844C5.59848 11.6906 6.01411 11.9313 6.46411 12.1L7.05942 12.3235L7.33911 13.8391C7.7804 13.8891 8.22594 13.8891 8.66723 13.8391L8.94692 12.3203L9.53755 12.0938C9.98286 11.925 10.3969 11.6844 10.7672 11.3797L11.2579 10.975L12.7172 11.4938C12.9829 11.136 13.2047 10.75 13.3829 10.3438L12.2032 9.33596L12.3047 8.71096C12.3422 8.47815 12.3625 8.23752 12.3625 8.00002C12.3625 7.76096 12.3438 7.5219 12.3047 7.28909L12.2032 6.66409L13.3829 5.65627C13.2063 5.24846 12.9829 4.86409 12.7172 4.50627L11.2579 5.02502L10.7672 4.62034C10.3969 4.31565 9.98286 4.07502 9.53755 3.90627L8.94536 3.68284L8.66567 2.16409C8.22661 2.11409 7.77817 2.11409 7.33754 2.16409L7.05786 3.67971L6.46254 3.90315C6.01411 4.0719 5.59692 4.31252 5.22348 4.61877L4.73286 5.0219L3.28286 4.50784C3.01723 4.86565 2.79536 5.25159 2.61723 5.65784L3.78442 6.65627L3.68286 7.27971ZM8.00004 5.09377C9.5188 5.09377 10.75 6.32502 10.75 7.84377C10.75 9.36252 9.5188 10.5938 8.00004 10.5938C6.48129 10.5938 5.25004 9.36252 5.25004 7.84377C5.25004 6.32502 6.48129 5.09377 8.00004 5.09377ZM6.76254 9.08127C6.92485 9.24405 7.11775 9.37313 7.33012 9.46108C7.5425 9.54904 7.77017 9.59413 8.00004 9.59377C8.46723 9.59377 8.9063 9.41096 9.23755 9.08127C9.40032 8.91896 9.5294 8.72607 9.61735 8.51369C9.70531 8.30132 9.7504 8.07364 9.75005 7.84377C9.75005 7.37659 9.56723 6.93752 9.23755 6.60627C8.9063 6.27502 8.46723 6.09377 8.00004 6.09377C7.53286 6.09377 7.09379 6.27502 6.76254 6.60627C6.59977 6.76858 6.47069 6.96148 6.38274 7.17385C6.29478 7.38623 6.24969 7.6139 6.25004 7.84377C6.25004 8.31096 6.43286 8.75002 6.76254 9.08127Z" fill="black"/>
</svg>
